<?xml version="1.0" encoding="UTF-8"?>
<svg id="_图层_1" data-name="图层_1" xmlns="http://www.w3.org/2000/svg" version="1.1" viewBox="0 0 26.4 32.4">
  <!-- Generator: Adobe Illustrator 30.0.0, SVG Export Plug-In . SVG Version: 2.1.1 Build 123)  -->
  <defs>
    <style>
      .st0 {
        fill-rule: evenodd;
      }
    </style>
  </defs>
  <path class="st0" d="M4.2,3.4c-1.1,0-2,.9-2,2v18c0,1.1.9,2,2,2h2c.55,0,1-.45,1-1v-6c0-1.1.9-2,2-2h8c1.1,0,2,.9,2,2v6c0,.55.45,1,1,1h2c1.1,0,2-.9,2-2v-13.17c0-.53-.21-1.04-.59-1.41l-4.83-4.83c-.38-.38-.88-.59-1.41-.59h-.17c-.55,0-1,.45-1,1v4c0,1.1-.9,2-2,2h-6c-1.1,0-2-.9-2-2v-4c0-.55-.45-1-1-1h-1ZM13.2,4.4c0-.55-.45-1-1-1s-1,.45-1,1v3c0,.55.45,1,1,1s1-.45,1-1v-3Z"/>
</svg>